/* XPM */
static char *_47d29ff459f44fef4459c1977b212d6YG9dh7vVtGCUOtGR[] = {
/* columns rows colors chars-per-pixel */
"80 80 3 1 ",
"  c gray42",
". c gray47",
"X c #FEEF48",
/* pixels */
"................................................................................",
"................................................................................",
"................................................................................",
"................................................................................",
"....XXXXXXXXXXXX....................................................XXXXXXXX....",
"....XXXXXXXXXXXX....................................................XXXXXXXX....",
"....XXXXXXXXXXXX....................................................XXXXXXXX....",
"....XXXXXXXXXXXX....................................................XXXXXXXX....",
"....XXXXXXXXXXXX....................XXXXXXXX    ................    XXXXXXXX....",
"....XXXXXXXXXXXX....................XXXXXXXX    ................    XXXXXXXX....",
"....XXXXXXXXXXXX....................XXXXXXXX    ................    XXXXXXXX....",
"....XXXXXXXXXXXX....................XXXXXXXX    ................    XXXXXXXX....",
"....XXXXXXXX....................XXXXXXXXXXXX............................    ....",
"....XXXXXXXX....................XXXXXXXXXXXX............................    ....",
"....XXXXXXXX....................XXXXXXXXXXXX............................    ....",
"....XXXXXXXX....................XXXXXXXXXXXX............................    ....",
"....................................            ................................",
"....................................            ................................",
"....................................            ................................",
"....................................            ................................",
"............    XXXXXXXX............................XXXXXXXX    ................",
"............    XXXXXXXX............................XXXXXXXX    ................",
"............    XXXXXXXX............................XXXXXXXX    ................",
"............    XXXXXXXX............................XXXXXXXX    ................",
"............    XXXXXXXXXXXX........................XXXXXXXXXXXX................",
"............    XXXXXXXXXXXX........................XXXXXXXXXXXX................",
"............    XXXXXXXXXXXX........................XXXXXXXXXXXX................",
"............    XXXXXXXXXXXX........................XXXXXXXXXXXX................",
"................XXXXXXXXXXXX........................XXXXXXXXXXXX................",
"................XXXXXXXXXXXX........................XXXXXXXXXXXX................",
"................XXXXXXXXXXXX........................XXXXXXXXXXXX................",
"................XXXXXXXXXXXX........................XXXXXXXXXXXX................",
"........................................        ....XXXXXXXX        ............",
"........................................        ....XXXXXXXX        ............",
"........................................        ....XXXXXXXX        ............",
"........................................        ....XXXXXXXX        ............",
"................................    XXXXXXXX    ................................",
"................................    XXXXXXXX    ................................",
"................................    XXXXXXXX    ................................",
"................................    XXXXXXXX    ................................",
"............        ............    ....XXXX....................................",
"............        ............    ....XXXX....................................",
"............        ............    ....XXXX....................................",
"............        ............    ....XXXX....................................",
"........        XXXXXXXXXXXX....................................................",
"........        XXXXXXXXXXXX....................................................",
"........        XXXXXXXXXXXX....................................................",
"........        XXXXXXXXXXXX....................................................",
"................XXXXXXXXXXXX....................................................",
"................XXXXXXXXXXXX....................................................",
"................XXXXXXXXXXXX....................................................",
"................XXXXXXXXXXXX....................................................",
"........    ....XXXXXXXX........................XXXXXXXX....        ............",
"........    ....XXXXXXXX........................XXXXXXXX....        ............",
"........    ....XXXXXXXX........................XXXXXXXX....        ............",
"........    ....XXXXXXXX........................XXXXXXXX....        ............",
"....        ........................        ....XXXXXXXXXXXX        ............",
"....        ........................        ....XXXXXXXXXXXX        ............",
"....        ........................        ....XXXXXXXXXXXX        ............",
"....        ........................        ....XXXXXXXXXXXX        ............",
"....    ............................        ....................................",
"....    ............................        ....................................",
"....    ............................        ....................................",
"....    ............................        ....................................",
"........XXXXXXXX....................XXXXXXXX....................XXXXXXXX........",
"........XXXXXXXX....................XXXXXXXX....................XXXXXXXX........",
"........XXXXXXXX....................XXXXXXXX....................XXXXXXXX........",
"........XXXXXXXX....................XXXXXXXX....................XXXXXXXX........",
"....    XXXXXXXX....................XXXXXXXX................XXXXXXXXXXXX    ....",
"....    XXXXXXXX....................XXXXXXXX................XXXXXXXXXXXX    ....",
"....    XXXXXXXX....................XXXXXXXX................XXXXXXXXXXXX    ....",
"....    XXXXXXXX....................XXXXXXXX................XXXXXXXXXXXX    ....",
"....        ................................................                ....",
"....        ................................................                ....",
"....        ................................................                ....",
"....        ................................................                ....",
"................................................................................",
"................................................................................",
"................................................................................",
"................................................................................"
};
