/* XPM */
static char *Redstone1702388037[] = {
/* columns rows colors chars-per-pixel */
"80 80 3 1 ",
"  c gray42",
". c gray47",
"X c #FE220E",
/* pixels */
"................................................................................",
"................................................................................",
"................................................................................",
"................................................................................",
"....XXXXXXXXXXXX....................................................XXXXXXXX....",
"....XXXXXXXXXXXX....................................................XXXXXXXX....",
"....XXXXXXXXXXXX....................................................XXXXXXXX....",
"....XXXXXXXXXXXX....................................................XXXXXXXX....",
"....XXXXXXXXXXXX....................XXXXXXXX    ................    XXXXXXXX....",
"....XXXXXXXXXXXX....................XXXXXXXX    ................    XXXXXXXX....",
"....XXXXXXXXXXXX....................XXXXXXXX    ................    XXXXXXXX....",
"....XXXXXXXXXXXX....................XXXXXXXX    ................    XXXXXXXX....",
"....XXXXXXXX....................XXXXXXXXXXXX............................    ....",
"....XXXXXXXX....................XXXXXXXXXXXX............................    ....",
"....XXXXXXXX....................XXXXXXXXXXXX............................    ....",
"....XXXXXXXX....................XXXXXXXXXXXX............................    ....",
"....................................            ................................",
"....................................            ................................",
"....................................            ................................",
"....................................            ................................",
"............    XXXXXXXX............................XXXXXXXX    ................",
"............    XXXXXXXX............................XXXXXXXX    ................",
"............    XXXXXXXX............................XXXXXXXX    ................",
"............    XXXXXXXX............................XXXXXXXX    ................",
"............    XXXXXXXXXXXX........................XXXXXXXXXXXX................",
"............    XXXXXXXXXXXX........................XXXXXXXXXXXX................",
"............    XXXXXXXXXXXX........................XXXXXXXXXXXX................",
"............    XXXXXXXXXXXX........................XXXXXXXXXXXX................",
"................XXXXXXXXXXXX........................XXXXXXXXXXXX................",
"................XXXXXXXXXXXX........................XXXXXXXXXXXX................",
"................XXXXXXXXXXXX........................XXXXXXXXXXXX................",
"................XXXXXXXXXXXX........................XXXXXXXXXXXX................",
"........................................        ....XXXXXXXX        ............",
"........................................        ....XXXXXXXX        ............",
"........................................        ....XXXXXXXX        ............",
"........................................        ....XXXXXXXX        ............",
"................................    XXXXXXXX    ................................",
"................................    XXXXXXXX    ................................",
"................................    XXXXXXXX    ................................",
"................................    XXXXXXXX    ................................",
"............        ............    ....XXXX....................................",
"............        ............    ....XXXX....................................",
"............        ............    ....XXXX....................................",
"............        ............    ....XXXX....................................",
"........        XXXXXXXXXXXX....................................................",
"........        XXXXXXXXXXXX....................................................",
"........        XXXXXXXXXXXX....................................................",
"........        XXXXXXXXXXXX....................................................",
"................XXXXXXXXXXXX....................................................",
"................XXXXXXXXXXXX....................................................",
"................XXXXXXXXXXXX....................................................",
"................XXXXXXXXXXXX....................................................",
"........    ....XXXXXXXX........................XXXXXXXX....        ............",
"........    ....XXXXXXXX........................XXXXXXXX....        ............",
"........    ....XXXXXXXX........................XXXXXXXX....        ............",
"........    ....XXXXXXXX........................XXXXXXXX....        ............",
"....        ........................        ....XXXXXXXXXXXX        ............",
"....        ........................        ....XXXXXXXXXXXX        ............",
"....        ........................        ....XXXXXXXXXXXX        ............",
"....        ........................        ....XXXXXXXXXXXX        ............",
"....    ............................        ....................................",
"....    ............................        ....................................",
"....    ............................        ....................................",
"....    ............................        ....................................",
"........XXXXXXXX....................XXXXXXXX....................XXXXXXXX........",
"........XXXXXXXX....................XXXXXXXX....................XXXXXXXX........",
"........XXXXXXXX....................XXXXXXXX....................XXXXXXXX........",
"........XXXXXXXX....................XXXXXXXX....................XXXXXXXX........",
"....    XXXXXXXX....................XXXXXXXX................XXXXXXXXXXXX    ....",
"....    XXXXXXXX....................XXXXXXXX................XXXXXXXXXXXX    ....",
"....    XXXXXXXX....................XXXXXXXX................XXXXXXXXXXXX    ....",
"....    XXXXXXXX....................XXXXXXXX................XXXXXXXXXXXX    ....",
"....        ................................................                ....",
"....        ................................................                ....",
"....        ................................................                ....",
"....        ................................................                ....",
"................................................................................",
"................................................................................",
"................................................................................",
"................................................................................"
};
